<svg xmlns="http://www.w3.org/2000/svg" xmlns:svg="http://www.w3.org/2000/svg" id="svg13" width="20" height="20" fill="none" version="1.1" viewBox="0 0 20 20"><g id="g4" clip-path="url(#clip0_311_4129)" transform="scale(0.8313413)"><path id="path2" stroke="#000" stroke-linecap="round" stroke-miterlimit="10" stroke-width="2" d="M 5.41762,16.844 C 5.4641,16.6729 5.36137,16.435 5.26332,16.2635 5.23279,16.2124 5.19967,16.1629 5.1641,16.1151 4.32319,14.8398 3.87498,13.3458 3.87504,11.8182 3.86137,7.43346 7.4973,3.87526 11.9934,3.87526 c 3.9211,0 7.1941,2.71641 7.959,6.32224 0.1146,0.5346 0.1724,1.0798 0.1726,1.6266 0,4.391 -3.4957,8.0051 -7.9918,8.0051 -0.7148,0 -1.6796,-0.1797 -2.20582,-0.327 C 9.40121,19.3549 8.87582,19.1596 8.74027,19.1073 8.60164,19.054 8.45441,19.0266 8.3059,19.0264 8.14367,19.0258 7.98301,19.0581 7.83363,19.1213 L 5.18402,20.0776 C 5.12597,20.1026 5.06447,20.1187 5.0016,20.1253 4.95199,20.1251 4.9029,20.1151 4.85718,20.0959 4.81146,20.0766 4.77001,20.0485 4.73524,20.0131 4.70047,19.9777 4.67307,19.9358 4.65462,19.8897 4.63618,19.8436 4.62705,19.7944 4.62777,19.7448 4.63103,19.7012 4.63889,19.6582 4.65121,19.6163 Z"/></g><path id="path6" stroke="#000" stroke-linecap="round" stroke-linejoin="round" stroke-width="1.663" d="M 0.8313413,0.8313413 19.12085,19.12085"/><defs id="defs11"><clipPath id="clip0_311_4129"><rect id="rect8" width="20" height="20" x="0" y="0" fill="#fff" transform="translate(2,2)"/></clipPath></defs></svg>