<svg xmlns="http://www.w3.org/2000/svg" width="20" height="20" fill="none" viewBox="0 0 20 20"><path stroke="#000" stroke-linecap="round" stroke-linejoin="round" stroke-width="1.5" d="M10 18.1254C14.4873 18.1254 18.125 14.4877 18.125 10.0004C18.125 5.51305 14.4873 1.87537 10 1.87537C5.51269 1.87537 1.875 5.51305 1.875 10.0004C1.875 14.4877 5.51269 18.1254 10 18.1254Z"/><path stroke="#000" stroke-linecap="round" stroke-linejoin="round" stroke-width="1.5" d="M10 13.1252C11.7259 13.1252 13.125 11.7261 13.125 10.0002C13.125 8.27435 11.7259 6.87524 10 6.87524C8.27411 6.87524 6.875 8.27435 6.875 10.0002C6.875 11.7261 8.27411 13.1252 10 13.1252Z"/><path stroke="#000" stroke-linecap="round" stroke-linejoin="round" stroke-width="1.5" d="M8.125 2.10938L8.4375 7.26562"/><path stroke="#000" stroke-linecap="round" stroke-linejoin="round" stroke-width="1.5" d="M11.5625 7.26562L11.875 2.10938"/><path stroke="#000" stroke-linecap="round" stroke-linejoin="round" stroke-width="1.5" d="M8.125 17.8915L8.4375 12.7352"/><path stroke="#000" stroke-linecap="round" stroke-linejoin="round" stroke-width="1.5" d="M11.5625 12.7352L11.875 17.8915"/><path stroke="#000" stroke-linecap="round" stroke-linejoin="round" stroke-width="1.5" d="M17.8906 8.125L12.7344 8.4375"/><path stroke="#000" stroke-linecap="round" stroke-linejoin="round" stroke-width="1.5" d="M12.7344 11.5624L17.8906 11.8749"/><path stroke="#000" stroke-linecap="round" stroke-linejoin="round" stroke-width="1.5" d="M2.10938 8.125L7.26562 8.4375"/><path stroke="#000" stroke-linecap="round" stroke-linejoin="round" stroke-width="1.5" d="M7.26562 11.5624L2.10938 11.8749"/></svg>